<?xml version="1.0" encoding="UTF-8" standalone="no"?>
<!-- Creator: CorelDRAW 2018 (64-Bit) -->

<svg
   xml:space="preserve"
   width="467.04468"
   height="467.04468"
   version="1.1"
   style="clip-rule:evenodd;fill-rule:evenodd;image-rendering:optimizeQuality;shape-rendering:geometricPrecision;text-rendering:geometricPrecision"
   viewBox="0 0 12357.224 12357.224"
   zoomAndPan="magnify"
   id="svg107"
   xmlns="http://www.w3.org/2000/svg"
   xmlns:svg="http://www.w3.org/2000/svg">&#10; <defs
   id="defs1"><style
     type="text/css"
     id="style1">&#10;   <![CDATA[
    .fil3 {fill:#898989}
    .fil5 {fill:#2B2A29}
    .fil0 {fill:#AE4A84}
    .fil4 {fill:#393185}
    .fil1 {fill:#F8BD79}
    .fil2 {fill:#FCD0A3}
   ]]>&#10;  </style></defs>&#10; <g
   id="Layer_x0020_1"
   transform="translate(75263.922,-19917.683)">&#10;  <metadata
   id="CorelCorpID_0Corel-Layer" />&#10;  &#10;  &#10;  &#10;  &#10;  &#10;  &#10;  &#10;  &#10;  &#10;  &#10;  &#10;  &#10;  &#10;  &#10;  &#10;  &#10;  &#10;  &#10;  &#10;  &#10;  &#10;  &#10;  &#10;  &#10;  &#10;  &#10;  &#10;  &#10;  &#10;  &#10;  &#10;  &#10;  &#10;  &#10;  &#10;  &#10;  &#10;  &#10;  &#10;  &#10;  &#10;  &#10;  &#10;  &#10;  &#10;  &#10;  &#10;  &#10;  &#10; <g
   id="g11"><rect
     style="fill:none;stroke:#000000;stroke-width:0;stroke-linejoin:bevel"
     id="rect3"
     width="12357.224"
     height="12357.224"
     x="-32274.906"
     y="-75263.922"
     ry="0"
     transform="rotate(-90)" /><g
     id="g3"
     transform="translate(-19497.808,17606.026)"><path
       class="fil1"
       d="m -50540.127,5184.9211 c 161.39,42.54 297.92,65.93 455.18,120.57 116.53,40.49 336,177.2 381.74,175.52 l -89.48,-232.01 -33.65,-44.32 c -105.72,-119.79 -185.54,-85.51 -365.87,-209.33 l -305.24,-248.39 z"
       id="path4" /><path
       class="fil2"
       d="m -50574.407,4579.4311 72.23,155.7 305.24,248.39 c 180.33,123.82 260.15,89.54 365.87,209.33 l 33.65,44.32 45.66,-40.66 c 6.58,-3.85 15.66,-11.82 23.84,-15.97 l 121.08,-33.86 c 74.12,-20.45 115.66,-49.85 163.55,-96.49 245.07,-238.61 325.37,-1025.95 279.45,-1322.96 -256.3,178.46 -411.44,183.18 -733.38,270.13 -39.83,176.19 5.27,277.21 -165.77,323.61 -125.41,-99.63 -52.93,-109.15 -141.4,-258.55 -64.66,-109.22 -163.69,-114.8 -283.77,-84.57 -144.74,290.09 109.67,344.49 -86.25,601.58 z"
       id="path10" /><path
       class="fil2"
       d="m -50328.677,13823.021 c 103.19,189.94 387.14,160.42 683.56,165.18 139.33,2.24 277.06,-1.62 416.26,-4.1 324.8,-5.78 261.42,6.76 378.94,-37 6.6,-2.45 16.72,-6.87 24.28,-11.73 l 13.92,-119.47 c -149.45,-281.18 -561.84,-86.52 -684.99,-461.07 -281.73,37.13 -533.19,14.99 -800.7,-42.57 z"
       id="path17" /><path
       class="fil3"
       d="m -48812.877,13822.641 -13.92,119.47 c -7.56,4.86 -17.68,9.28 -24.28,11.73 -117.52,43.76 -54.14,31.22 -378.94,37 -139.2,2.48 -276.93,6.34 -416.26,4.1 -296.42,-4.76 -580.37,24.76 -683.56,-165.18 -178.34,-10.31 -362.58,9.18 -540.97,27.35 -105.27,10.72 -333.83,29.7 -429.61,76.39 -46.34,22.58 -35.22,19.15 -60.08,38.5 l 58.54,40.65 c 134.88,66.31 621.6,94.68 762.18,101.94 319.65,16.49 2496.48,87.84 2725.27,-142.59 -49.78,-46.1 44.07,0.4 -78.35,-50.25 -139.48,-57.72 -772.89,-91.91 -920.02,-99.11 z"
       id="path35" /><path
       class="fil4"
       d="m -48928.917,7764.4911 c 471.19,-6.79 613.12,19.21 733.68,-232.64 297.94,-622.38 -472.79,-787.63 -508.81,-806.83 -202.1,-107.77 -302.22,-550.71 -476.42,-710.97 l -162.89,-131.79 c 107.71,245.76 278.12,465.5 338.39,835.45 -215.19,-90.24 -791.71,-1331.68 -1395.23,-1064.35 -167.46,74.17 -314.71,276.55 -288.22,546 39.11,397.74 429.67,790.77 641.87,1006.03 410.8,416.73 441.67,404.79 1117.63,559.1 z"
       id="path42" /><path
       class="fil4"
       d="m -50855.487,3924.5611 c 213.68,-42.05 491.33,-171.46 763.87,-230.05 298.26,-64.13 646.09,-104.3 956.14,-85.37 -113.01,-306.44 -154.19,-932.96 -1168.89,-725.2 -622.23,127.39 -762.624,540.9721 -586.284,1051.1121 z"
       id="path46" /><path
       class="fil4"
       d="m -50697.917,5474.9411 c 582.44,-69.1 554.89,17.68 1054.3,122.61 l -63.26,-118.03 c -45.74,1.68 -265.21,-135.03 -381.74,-175.52 -157.26,-54.64 -293.79,-78.03 -455.18,-120.57 l -99.39,12.06 z"
       id="path54" /><path
       class="fil5"
       d="m -50298.567,13319.001 c 267.51,57.56 518.97,79.7 800.7,42.57 359.45,-91.91 335.37,-206.56 362.55,-585.54 21.18,-295.31 36.24,-605.82 49.61,-901.75 25.01,-553.05 101.11,-1332.35 70.65,-1862.38 l 9.9,-457.9799 c -311.13,58.93 -514.41,89.09 -865.38,66.94 -329.09,-20.79 -523.69,-100.99 -808.72,-147.88 16.76,324.61 -54.56,580.3999 -0.48,963.2199 125.01,884.95 169.37,822.53 145.24,1832.06 -20.93,876.03 -175.77,984.97 235.93,1050.74 z"
       id="path61" /><path
       class="fil5"
       d="m -50848.067,4048.3111 c 77.08,191.19 138.01,418.97 272.5,537.86 195.92,-257.09 -58.49,-311.49 86.25,-601.58 120.08,-30.23 219.11,-24.65 283.77,84.57 88.47,149.4 15.99,158.92 141.4,258.55 171.04,-46.4 125.94,-147.42 165.77,-323.61 321.94,-86.95 477.08,-91.67 733.38,-270.13 l 27.3,-128.43 c -310.05,-18.93 -657.88,21.24 -956.14,85.37 -272.54,58.59 -584.12,198.1564 -797.8,240.2064 z"
       id="path66" /><path
       class="fil0"
       d="m -50697.917,5474.9411 c -454.92,671.33 -174.9,1423.75 -42.56,1976.1 146.34,610.83 48.46,999.62 -51.57,1579.49 -52.9,306.66 -40.05,275.82 115.01,446.05 285.03,46.89 479.63,127.09 808.72,147.88 350.97,22.15 554.25,-8.01 865.38,-66.94 l -9.9,457.9799 c 35.7,-85.0499 36.2,-198.6899 43.69,-316.9799 12.92,-203.47 -20.77,-110.7 86.21,-223.48 256.16,-270.02 -20.45,-1277.46 -45.98,-1710.55 -675.96,-154.31 -706.83,-142.37 -1117.63,-559.1 -212.2,-215.26 -602.76,-608.29 -641.87,-1006.03 -26.49,-269.45 120.76,-471.83 288.22,-546 603.52,-267.33 1180.04,974.11 1395.23,1064.35 -60.27,-369.95 -230.68,-589.69 -338.39,-835.45 -82.26,-32.01 -244.32,-220.76 -300.26,-284.71 -499.41,-104.93 -471.86,-191.71 -1054.3,-122.61 z"
       id="path78" /></g></g></g>&#10;</svg>
