<?xml version="1.0" encoding="UTF-8" standalone="no"?>
<!-- Creator: CorelDRAW 2018 (64-Bit) -->

<svg
   xml:space="preserve"
   width="467.04468"
   height="467.04468"
   version="1.1"
   style="clip-rule:evenodd;fill-rule:evenodd;image-rendering:optimizeQuality;shape-rendering:geometricPrecision;text-rendering:geometricPrecision"
   viewBox="0 0 12357.224 12357.224"
   zoomAndPan="magnify"
   id="svg107"
   xmlns="http://www.w3.org/2000/svg"
   xmlns:svg="http://www.w3.org/2000/svg">&#10; <defs
   id="defs1"><style
     type="text/css"
     id="style1">&#10;   <![CDATA[
    .fil3 {fill:#898989}
    .fil5 {fill:#2B2A29}
    .fil0 {fill:#AE4A84}
    .fil4 {fill:#393185}
    .fil1 {fill:#F8BD79}
    .fil2 {fill:#FCD0A3}
   ]]>&#10;  </style></defs>&#10; <g
   id="Layer_x0020_1"
   transform="translate(44969.199,-24953.472)">&#10;  <metadata
   id="CorelCorpID_0Corel-Layer" />&#10;  &#10;  &#10;  &#10;  &#10;  &#10;  &#10;  &#10;  &#10;  &#10;  &#10;  &#10;  &#10;  &#10;  &#10;  &#10;  &#10;  &#10;  &#10;  &#10;  &#10;  &#10;  &#10;  &#10;  &#10;  &#10;  &#10;  &#10;  &#10;  &#10;  &#10;  &#10;  &#10;  &#10;  &#10;  &#10;  &#10;  &#10;  &#10;  &#10;  &#10;  &#10;  &#10;  &#10;  &#10;  &#10;  &#10;  &#10;  &#10;  &#10; <g
   id="g15"><rect
     style="fill:none;stroke:#000000;stroke-width:0;stroke-linejoin:bevel"
     id="rect5"
     width="12357.224"
     height="12357.224"
     x="-37310.695"
     y="-44969.199"
     ry="0"
     transform="rotate(-90)" /><g
     id="g5"
     transform="translate(8314.5946,12281.518)"><path
       class="fil1"
       d="m -47936.197,22052.851 c -24.16,62.75 -19.49,54.97 -48.05,91.81 -42.42,54.73 -0.89,21.56 -65.99,51.01 6.71,243.41 608.6,190.61 783.21,129.02 l 16.75,-125.57 c -69.32,-326.68 -449.6,-232.84 -685.92,-146.27 z"
       id="path3" /><path
       class="fil1"
       d="m -47586.697,17235.661 -8.74,130.13 c 140.5,3.25 284.79,25.25 421.5,63.72 133.71,37.64 241.29,105.82 338.05,125.85 l -21.58,-135.72 c -193.01,-56.3 -257.1,-94.17 -406.69,-198.67 -142.48,-99.53 -181.25,-180.99 -298.47,-274.31 -7.31,125.33 25.52,189.96 -24.07,289 z"
       id="path8" /><path
       class="fil2"
       d="m -47621.437,16775.591 30.01,448.24 c 49.59,-99.04 16.76,-163.67 24.07,-289 117.22,93.32 155.99,174.78 298.47,274.31 149.59,104.5 213.68,142.37 406.69,198.67 315.93,-34.42 415.87,-206.46 504.44,-485.39 80.24,-252.72 140.24,-586.42 153.01,-859.26 -399,244 -626.2,139.68 -719.76,232.41 -92.04,152.02 -10.71,203.5 -179.35,277.42 -181.63,-133.73 -23.84,-423.48 -386.11,-360.28 -173.94,268.54 69.9,312.01 -131.47,562.88 z"
       id="path12" /><path
       class="fil2"
       d="m -48322.217,21314.731 c -12.1,150.07 -65.43,334.49 -119.71,459.71 -76.68,176.88 -175.91,192.31 -172.82,408.26 l -229.17,21.71 215.55,-9.73 c 123.44,146.73 69.21,245.89 328.91,236.88 l 103.64,-256.07 140.85,8.35 c 65.1,-29.45 23.57,3.72 65.99,-51.01 28.56,-36.84 23.89,-29.06 48.05,-91.81 -50.83,-27.63 -101.03,-30.49 79.44,-103.5 104.79,-42.39 151.64,-43.31 259.85,-44.93 -122.87,-424.61 -206.5,-774.15 -642.13,-721.94 z"
       id="path18" /><path
       class="fil2"
       d="m -45398.777,20612.971 c -25.52,70.01 -43.64,158.67 -85.21,233.07 -58,103.8 -97.51,81.29 -71.11,164.92 l 428.16,93.47 c 144.82,-101.16 79.16,4.36 259.75,-229.49 120.71,2.33 242.88,-0.83 328.16,-40.3 -28.67,-316.46 -785.82,-224.06 -859.75,-221.67 z"
       id="path23" /><path
       class="fil3"
       d="m -48845.077,22211.151 c -226.11,13.18 -667.66,12.42 -827.47,130.1 254.6,247.11 4872.59,249.13 5134.73,0 -120.2,-97.42 -337.61,-67.81 -490.24,-112.52 -264.48,88.81 -819.75,86.12 -1150.36,88.2 -198.48,1.23 -400.29,0.92 -598.5,-7.04 -318.82,-12.81 -376.85,4.42 -479.25,-115.86 l -16.75,125.57 c -174.61,61.59 -776.5,114.39 -783.21,-129.02 l -140.85,-8.35 -103.64,256.07 c -259.7,9.01 -205.47,-90.15 -328.91,-236.88 z"
       id="path34" /><path
       class="fil4"
       d="m -46594.807,20871.761 c 75.32,50.24 346.84,119.18 464.28,143.17 85.04,17.37 198.95,40.14 284.79,46.27 186.45,13.3 153.28,-27.32 291.7,-39.9 -26.4,-83.63 13.11,-61.12 71.11,-164.92 41.57,-74.4 59.69,-163.06 85.21,-233.07 l -7.97,-122.09 c -98.59,-56.23 -151.31,-94.58 -283.89,-141.44 -106.79,-37.74 -192.13,-66.84 -307.82,-111.35 -97.42,-37.49 -199.06,-74.91 -291.91,-121.47 -142.01,-71.21 -136.38,-101.36 -208.96,-219.54 12.71,164.82 15.98,44.41 -45.73,90.12 -86.28,-145.81 -365.68,-244.24 -366.53,-700.8 -0.71,-375.46 75.25,-1515.37 -476.46,-1595.87 -306.78,-44.76 -524.9,142.65 -600.89,414.02 -74.12,264.73 -23.01,651.15 35.38,925.23 l 208.13,836.87 c 87.35,312.43 210.32,511.69 399.02,650.08 176.57,129.51 425.73,235.93 641.6,300.18 l 80.36,30.55 c 8.27,3.41 19.85,7.94 28.58,13.96 z"
       id="path40" /><path
       class="fil4"
       d="m -47864.607,16149.831 c 600.19,-168.06 968.66,-241.08 1657,-190.72 60.52,-573.87 -413.12,-828.31 -980.92,-779.42 -260.14,22.4 -466.12,124.01 -587.2,274.88 -176.13,219.44 -128.6,421.67 -88.88,695.26 z"
       id="path49" /><path
       class="fil4"
       d="m -47838.027,17567.411 c 534.81,-115.51 641.46,39.73 1082.3,142.85 l -83.83,-156.39 c -96.76,-20.03 -204.34,-88.21 -338.05,-125.85 -136.71,-38.47 -281,-60.47 -421.5,-63.72 l 8.74,-130.13 -12.68,89.52 c -116.39,53.62 -57.25,-16.66 -143.48,72.88 -25.78,26.78 -68.76,118.91 -91.5,170.84 z"
       id="path56" /><path
       class="fil5"
       d="m -48358.967,20997.451 35.59,324.02 78.45,-144.08 c 435.63,-52.21 519.26,297.33 642.13,721.94 -108.21,1.62 -155.06,2.54 -259.85,44.93 -180.47,73.01 -130.27,75.87 -79.44,103.5 236.32,-86.57 616.6,-180.41 685.92,146.27 102.4,120.28 160.43,103.05 479.25,115.86 198.21,7.96 400.02,8.27 598.5,7.04 330.61,-2.08 885.88,0.61 1150.36,-88.2 376.6,-301.44 454.49,-890.21 -100.04,-1117.56 l -428.16,-93.47 c -138.42,12.58 -105.25,53.2 -291.7,39.9 -85.84,-6.13 -199.75,-28.9 -284.79,-46.27 -117.44,-23.99 -388.96,-92.93 -464.28,-143.17 -565.29,-23.64 -1180.73,261.42 -1762.12,-0.56 z"
       id="path65" /><path
       class="fil5"
       d="m -47866.827,16146.231 c 60.13,204.5 109.87,531.78 244.23,636.1 201.37,-250.87 -42.47,-294.34 131.47,-562.88 362.27,-63.2 204.48,226.55 386.11,360.28 168.64,-73.92 87.31,-125.4 179.35,-277.42 93.56,-92.73 320.76,11.59 719.76,-232.41 l -3.92,-114.39 c -688.34,-50.36 -1056.81,22.66 -1657,190.72 z"
       id="path68" /><path
       class="fil0"
       d="m -47838.027,17567.411 c -49.03,88.03 -152.02,140.17 -232.81,252.95 -241.73,337.46 -320.22,818.88 -381.31,1235.89 -66.45,453.53 -140.86,1285.9 31.31,1736.49 26.12,68.35 38.13,154.86 64.09,208.31 l -0.18,-129.85 c 581.39,261.98 1196.83,-23.08 1762.12,0.56 -8.73,-6.02 -20.31,-10.55 -28.58,-13.96 l -80.36,-30.55 c -215.87,-64.25 -465.03,-170.67 -641.6,-300.18 -188.7,-138.39 -311.67,-337.65 -399.02,-650.08 l -208.13,-836.87 c -58.39,-274.08 -109.5,-660.5 -35.38,-925.23 75.99,-271.37 294.11,-458.78 600.89,-414.02 551.71,80.5 475.75,1220.41 476.46,1595.87 0.85,456.56 280.25,554.99 366.53,700.8 61.71,-45.71 58.44,74.7 45.73,-90.12 -150.61,-629.07 107.48,-1254.28 -31.6,-1780.65 -71.6,-270.97 -178.69,-315.68 -225.86,-416.51 -440.84,-103.12 -547.49,-258.36 -1082.3,-142.85 z"
       id="path81" /></g></g></g>&#10;</svg>
