<?xml version="1.0" encoding="UTF-8" standalone="no"?>
<!-- Creator: CorelDRAW 2018 (64-Bit) -->

<svg
   xml:space="preserve"
   width="467.04468"
   height="467.04468"
   version="1.1"
   style="clip-rule:evenodd;fill-rule:evenodd;image-rendering:optimizeQuality;shape-rendering:geometricPrecision;text-rendering:geometricPrecision"
   viewBox="0 0 12357.224 12357.224"
   zoomAndPan="magnify"
   id="svg107"
   xmlns="http://www.w3.org/2000/svg"
   xmlns:svg="http://www.w3.org/2000/svg">&#10; <defs
   id="defs1"><style
     type="text/css"
     id="style1">&#10;   <![CDATA[
    .fil3 {fill:#898989}
    .fil5 {fill:#2B2A29}
    .fil0 {fill:#AE4A84}
    .fil4 {fill:#393185}
    .fil1 {fill:#F8BD79}
    .fil2 {fill:#FCD0A3}
   ]]>&#10;  </style></defs>&#10; <g
   id="Layer_x0020_1"
   transform="translate(14910.562,-24613.382)">&#10;  <metadata
   id="CorelCorpID_0Corel-Layer" />&#10;  &#10;  &#10;  &#10;  &#10;  &#10;  &#10;  &#10;  &#10;  &#10;  &#10;  &#10;  &#10;  &#10;  &#10;  &#10;  &#10;  &#10;  &#10;  &#10;  &#10;  &#10;  &#10;  &#10;  &#10;  &#10;  &#10;  &#10;  &#10;  &#10;  &#10;  &#10;  &#10;  &#10;  &#10;  &#10;  &#10;  &#10;  &#10;  &#10;  &#10;  &#10;  &#10;  &#10;  &#10;  &#10;  &#10;  &#10;  &#10;  &#10; <g
   id="g17"><rect
     style="fill:none;stroke:#000000;stroke-width:0;stroke-linejoin:bevel"
     id="rect8"
     width="12357.224"
     height="12357.224"
     x="-36970.605"
     y="-14910.562"
     ry="0"
     transform="rotate(-90)" /><g
     id="g9"
     transform="translate(9281.4573,16350.842)"><path
       class="fil2"
       d="m -18994.507,10610.871 c 72.43,179.82 65.76,253.55 57.29,456.62 48.49,-82.91 21.33,-214 16.04,-310.76 133.44,106.04 124.78,150.14 344.69,286.34 121.9,75.51 256.19,117.34 376.2,194.18 l 9.33,-39.34 c 348.95,20.47 453.21,-198.62 533.02,-500.15 63.22,-238.85 112.21,-693.28 91.33,-953.6499 -281.83,229.49 -382.13,176.66 -738.99,305.0899 -46.48,172.22 1.34,220.32 -148.51,312.52 -127.88,-67.18 -88.56,-139.37 -163.26,-264.97 -62.23,-104.6499 -144.18,-130.3299 -283.15,-67.03 -131.96,276.42 122.15,435.64 -93.99,581.15 z"
       id="path26" /><path
       class="fil3"
       d="m -17307.007,19644.491 31.83,131.04 c -177.8,48.38 -620.85,37.59 -823.52,34.02 -198.69,-3.5 -599.25,39.24 -668.35,-172.02 -176.82,5.77 -351.17,15.93 -526.76,33.41 l -492.45,115.47 175.29,77.52 c 68.51,13.55 148.52,23.28 218.3,31.14 712.82,80.28 2058.88,81.05 2770.3,-1.68 65.55,-7.61 148.99,-18.26 213.01,-30.63 27.02,-5.23 69.59,-14.09 94.04,-24.98 128.51,-57.24 23.56,0.25 74.76,-51.37 -207.84,-160.27 -767.47,-135.51 -1066.45,-141.92 z"
       id="path37" /><path
       class="fil5"
       d="m -19264.137,10062.651 c 67.85,167.05 158.26,458.71 269.63,558.22 216.14,-145.51 -37.97,-304.73 93.99,-581.15 138.97,-63.2999 220.92,-37.62 283.15,67.03 74.7,125.6 35.38,197.79 163.26,264.97 149.85,-92.2 102.03,-140.3 148.51,-312.52 356.86,-128.4299 457.16,-75.5999 738.99,-305.0899 l 9.06,-109.67 c -329.21,-0.3 -664.05,26.02 -978,97.36 l -599.22,177.08 c -114.52,44.5 -127.82,32.73 -129.37,143.7699 z"
       id="path72" /><path
       class="fil0"
       d="m -19153.717,11379.111 c -454.92,671.33 -174.9,1423.75 -42.56,1976.1 146.34,610.83 48.46,999.62 -51.57,1579.49 -52.9,306.66 -40.05,275.82 115.01,446.05 285.03,46.89 479.63,127.09 808.72,147.88 350.97,22.15 554.25,-8.01 865.38,-66.94 l -9.9,457.98 c 35.7,-85.05 36.2,-198.69 43.69,-316.98 12.92,-203.47 -20.77,-110.7 86.21,-223.48 256.16,-270.02 -20.45,-1277.46 -45.98,-1710.55 -675.96,-154.31 -706.83,-142.37 -1117.63,-559.1 -212.2,-215.26 -602.76,-608.29 -641.87,-1006.03 -26.49,-269.45 120.76,-471.83 288.22,-546 603.52,-267.33 774.49,1279.47 989.68,1369.71 -60.27,-369.95 -155.87,-1031.75 -263.58,-1277.51 -82.26,-32.01 -134.06,-84.06 -190,-148.01 -499.41,-104.93 -251.38,-191.71 -833.82,-122.61 z"
       id="path82" /><path
       class="fil0"
       d="m -18299.317,15569.941 c -456.48,-604.4 -699.54,-1105.17 -729.18,-1502.29 -307.28,-1477.1 -254.32,-2329.11 158.88,-2556.02 559.2,-245.74 897.6,568.66 1015.17,2443.19 -284.88,1039.1 -433.18,1577.47 -444.87,1615.12 z"
       id="path85" /><path
       class="fil0"
       d="m -18055.097,15464.261 c -626.26,-626.31 -953.57,-1138.65 -981.93,-1536.98 -384.75,-1491.22 -280.38,-2340.14 313.12,-2546.76 628.68,-171.32 1042.15,303.24 1240.41,1423.64 54.36,307.29 92.57,663.17 114.55,1067.63 -439.55,1024.58 -668.28,1555.4 -686.15,1592.47 z"
       id="path87" /><path
       class="fil0"
       d="m -18271.167,14717.861 c -515.31,-515.35 -784.64,-936.93 -807.98,-1264.69 -316.59,-1227.04 -230.7,-1925.58 257.65,-2095.59 517.31,-140.97 857.54,249.52 1020.67,1171.43 44.73,252.85 76.17,545.69 94.26,878.5 -361.69,843.08 -549.89,1279.86 -564.6,1310.35 z"
       id="path89" /><path
       class="fil5"
       d="m -19106.997,15350.401 c -2.53,337.48 -55.7,559.36 -6.46,927.12 125.94,940.66 172.99,787.9 145.59,1877.26 -6.06,241.15 -59.49,751.14 -22.52,937.26 89.23,57.16 133.41,58.38 267.47,88.16 290.95,45.54 478.25,71.93 788.27,42 398.7,-117.78 347.26,-253.78 374.17,-685.97 21.17,-340.07 39.21,-680.62 53.57,-1023.34 24.1,-574.87 120.36,-1550.07 71.7,-2079.68 -57.74,-24.38 9.13,-18.72 -93.85,-2.94 -339.47,52.06 -346.04,74.85 -779.88,45.94 -180.67,-12.03 -737.18,-143.13 -798.06,-125.81 z"
       id="path91" /><path
       class="fil2"
       d="m -18035.047,14541.921 c -47.78,6.85 -113.36,58.4 -184.68,82.73 -104.48,35.62 -175.43,23.81 -299.26,-23.76 l -31.55,192.54 c -56.32,618.32 343.78,678.72 467.95,561.37 107.36,-101.48 53.54,-198.03 46.22,-310.72 52.53,-89.5 125.38,-104.39 92.69,-244.42 -23.79,-101.9 -70.91,-172.05 -91.37,-257.74 z"
       id="path93" /><path
       class="fil4"
       d="m -18635.597,14443.341 66.62,191.37 c 161.8,-27.53 402.19,98.29 575.03,-33.47 40.8,-201.77 -186.81,-1258 -48.62,-1989.18 44.57,-235.86 98.88,-415 62.73,-619.44 -1.39,-0.68 -70.53,-292.3 -284.09,-429.57 l -106.29,-49.89 c -110.52,-34.56 -249.51,-28.75 -423.01,52.27 -378.34,176.7 -368.5,534.2 -332.94,913.9 15.63,167.13 28.48,316.19 46.72,501.58 29.86,303.47 232.23,1021.01 383.72,1336.01 l 60.13,126.42 c -4.95,-2.09 -3.53,-9.07 0,0 z"
       id="path94" /><path
       class="fil1"
       d="m -18951.787,10996.341 -17.63,140.46 c 138.82,49.97 301.1,69.84 448.62,121.22 74.15,25.83 143.53,54.3 211.41,90.08 62.8,33.11 127.44,90.46 178.75,75.97 l -84.22,-257.97 c -120.01,-76.84 -254.3,-118.67 -376.2,-194.18 -219.91,-136.2 -211.25,-180.3 -344.69,-286.34 5.29,96.76 32.45,227.85 -16.04,310.76 z"
       id="path95" /><path
       class="fil4"
       d="m -19121.677,11379.491 c 582.44,-69.1 554.89,17.68 1054.3,122.61 l -63.26,-118.03 c -45.74,1.68 -265.21,-135.03 -381.74,-175.52 -157.26,-54.64 -293.79,-78.03 -455.18,-120.57 l -99.39,12.06 z"
       id="path97" /><path
       class="fil4"
       d="m -19253.368,10013.504 c 213.68,-42.0499 477.431,-173.5129 749.971,-232.1029 298.26,-64.13 634.808,-150.1439 944.858,-131.2139 -113.01,-306.44 -142.908,-887.1161 -1157.608,-679.3561 -622.23,127.39 -723.59,578.6064 -547.25,1088.7459 z"
       id="path99" /><path
       class="fil2"
       d="m -18797.217,19655.481 c 61.1,48.55 36.46,94.61 279.53,141.36 273.64,52.64 925.66,81.9 1194.07,77.98 58.74,-65.35 57.82,-16.85 99.43,-85.84 l -5.17,-29.98 c 3.95,-6.3 -11.83,-19.23 -8.54,-24.39 1.78,-2.8 4.08,-6.95 6.74,-11.18 l 1.74,-27.16 c -89.55,-17.42 -27.36,-27.99 -134.78,-97.56 -141.72,-91.77 -511.03,-83.42 -553.75,-400.09 -252.16,68.83 -559.98,19.99 -814.42,-47.87 z"
       id="path101" /><path
       class="fil2"
       d="m -17810.527,19835.071 c 252.83,-177.86 379.24,-266.79 379.24,-266.79 536.58,296.97 239.19,364.36 -379.24,266.79 z"
       id="path103" /></g></g></g>&#10;</svg>
