<?xml version="1.0" encoding="UTF-8" standalone="no"?>
<!-- Creator: CorelDRAW 2018 (64-Bit) -->

<svg
   xml:space="preserve"
   width="467.04468"
   height="467.04468"
   version="1.1"
   style="clip-rule:evenodd;fill-rule:evenodd;image-rendering:optimizeQuality;shape-rendering:geometricPrecision;text-rendering:geometricPrecision"
   viewBox="0 0 12357.224 12357.224"
   zoomAndPan="magnify"
   id="svg107"
   xmlns="http://www.w3.org/2000/svg"
   xmlns:svg="http://www.w3.org/2000/svg">&#10; <defs
   id="defs1"><style
     type="text/css"
     id="style1">&#10;   <![CDATA[
    .fil3 {fill:#898989}
    .fil5 {fill:#2B2A29}
    .fil0 {fill:#AE4A84}
    .fil4 {fill:#393185}
    .fil1 {fill:#F8BD79}
    .fil2 {fill:#FCD0A3}
   ]]>&#10;  </style></defs>&#10; <g
   id="Layer_x0020_1"
   transform="translate(29414.195,-24648.288)">&#10;  <metadata
   id="CorelCorpID_0Corel-Layer" />&#10;  &#10;  &#10;  &#10;  &#10;  &#10;  &#10;  &#10;  &#10;  &#10;  &#10;  &#10;  &#10;  &#10;  &#10;  &#10;  &#10;  &#10;  &#10;  &#10;  &#10;  &#10;  &#10;  &#10;  &#10;  &#10;  &#10;  &#10;  &#10;  &#10;  &#10;  &#10;  &#10;  &#10;  &#10;  &#10;  &#10;  &#10;  &#10;  &#10;  &#10;  &#10;  &#10;  &#10;  &#10;  &#10;  &#10;  &#10;  &#10;  &#10; <g
   id="g16"><rect
     style="fill:none;stroke:#000000;stroke-width:0;stroke-linejoin:bevel"
     id="rect7"
     width="12357.224"
     height="12357.224"
     x="-37005.512"
     y="-29414.195"
     ry="0"
     transform="rotate(-90)" /><g
     id="g8"
     transform="translate(980.7435,21893.955)"><path
       class="fil2"
       d="m -25197.427,5120.7411 c 72.43,179.82 65.76,253.55 57.29,456.62 48.49,-82.91 21.33,-214 16.04,-310.76 133.44,106.04 124.78,150.14 344.69,286.34 121.9,75.51 256.19,117.34 376.2,194.18 l 9.33,-39.34 c 348.95,20.47 453.21,-198.62 533.02,-500.15 63.22,-238.85 112.21,-693.28 91.33,-953.65 -281.83,229.49 -382.13,176.66 -738.99,305.09 -46.48,172.22 1.34,220.32 -148.51,312.52 -127.88,-67.18 -88.56,-139.37 -163.26,-264.97 -62.23,-104.65 -144.18,-130.33 -283.15,-67.03 -131.96,276.42 122.15,435.64 -93.99,581.15 z"
       id="path27" /><path
       class="fil3"
       d="m -23509.927,14154.361 31.83,131.04 c -177.8,48.38 -620.85,37.59 -823.52,34.02 -198.69,-3.5 -599.25,39.24 -668.35,-172.02 -176.82,5.77 -351.17,15.93 -526.76,33.41 l -492.45,115.47 175.29,77.52 c 68.51,13.55 148.52,23.28 218.3,31.14 712.82,80.28 2058.88,81.05 2770.3,-1.68 65.55,-7.61 148.99,-18.26 213.01,-30.63 27.02,-5.23 69.59,-14.09 94.04,-24.98 128.51,-57.24 23.56,0.25 74.76,-51.37 -207.84,-160.27 -767.47,-135.51 -1066.45,-141.92 z"
       id="path38" /><path
       class="fil5"
       d="m -25467.057,4572.5211 c 67.85,167.05 158.26,458.71 269.63,558.22 216.14,-145.51 -37.97,-304.73 93.99,-581.15 138.97,-63.3 220.92,-37.62 283.15,67.03 74.7,125.6 35.38,197.79 163.26,264.97 149.85,-92.2 102.03,-140.3 148.51,-312.52 356.86,-128.43 457.16,-75.6 738.99,-305.09 l 9.06,-109.67 c -329.21,-0.3 -664.05,26.02 -978,97.36 l -599.22,177.08 c -114.52,44.5 -127.82,32.73 -129.37,143.77 z"
       id="path73" /><path
       class="fil0"
       d="m -25356.637,5888.9811 c -454.92,671.33 -174.9,1423.75 -42.56,1976.1 146.34,610.83 48.46,999.62 -51.57,1579.49 -52.9,306.66 -40.05,275.82 115.01,446.05 285.03,46.89 479.63,127.0899 808.72,147.8799 350.97,22.15 554.25,-8.01 865.38,-66.9399 l -9.9,457.9799 c 35.7,-85.05 36.2,-198.69 43.69,-316.98 12.92,-203.4699 -20.77,-110.7 86.21,-223.4799 256.16,-270.02 -20.45,-1277.46 -45.98,-1710.55 -675.96,-154.31 -706.83,-142.37 -1117.63,-559.1 -212.2,-215.26 -602.76,-608.29 -641.87,-1006.03 -26.49,-269.45 120.76,-471.83 288.22,-546 603.52,-267.33 774.49,1279.47 989.68,1369.71 -60.27,-369.95 -155.87,-1031.75 -263.58,-1277.51 -82.26,-32.01 -134.06,-84.06 -190,-148.01 -499.41,-104.93 -251.38,-191.71 -833.82,-122.61 z"
       id="path83" /><path
       class="fil0"
       d="m -24502.237,10079.811 c -456.48,-604.3999 -699.54,-1105.1699 -729.18,-1502.2899 -307.28,-1477.1 -254.32,-2329.11 158.88,-2556.02 559.2,-245.74 897.6,568.66 1015.17,2443.19 -284.88,1039.1 -433.18,1577.4699 -444.87,1615.1199 z"
       id="path86" /><path
       class="fil0"
       d="m -24258.017,9974.1311 c -626.26,-626.31 -953.57,-1138.65 -981.93,-1536.98 -384.75,-1491.22 -280.38,-2340.14 313.12,-2546.76 628.68,-171.32 1042.15,303.24 1240.41,1423.64 54.36,307.29 92.57,663.17 114.55,1067.63 -439.55,1024.58 -668.28,1555.4 -686.15,1592.47 z"
       id="path88" /><path
       class="fil0"
       d="m -24474.087,9227.7311 c -515.31,-515.35 -784.64,-936.93 -807.98,-1264.69 -316.59,-1227.04 -230.7,-1925.58 257.65,-2095.59 517.31,-140.97 857.54,249.52 1020.67,1171.43 44.73,252.85 76.17,545.69 94.26,878.5 -361.69,843.08 -549.89,1279.86 -564.6,1310.35 z"
       id="path90" /><path
       class="fil5"
       d="m -25309.917,9860.2711 c -2.53,337.4799 -55.7,559.3599 -6.46,927.1199 125.94,940.66 172.99,787.9 145.59,1877.26 -6.06,241.15 -59.49,751.14 -22.52,937.26 89.23,57.16 133.41,58.38 267.47,88.16 290.95,45.54 478.25,71.93 788.27,42 398.7,-117.78 347.26,-253.78 374.17,-685.97 21.17,-340.07 39.21,-680.62 53.57,-1023.34 24.1,-574.87 120.36,-1550.07 71.7,-2079.6799 -57.74,-24.38 9.13,-18.72 -93.85,-2.94 -339.47,52.06 -346.04,74.8499 -779.88,45.94 -180.67,-12.03 -737.18,-143.13 -798.06,-125.81 z"
       id="path92" /><path
       class="fil1"
       d="m -25154.707,5506.2111 -17.63,140.46 c 138.82,49.97 301.1,69.84 448.62,121.22 74.15,25.83 143.53,54.3 211.41,90.08 62.8,33.11 127.44,90.46 178.75,75.97 l -84.22,-257.97 c -120.01,-76.84 -254.3,-118.67 -376.2,-194.18 -219.91,-136.2 -211.25,-180.3 -344.69,-286.34 5.29,96.76 32.45,227.85 -16.04,310.76 z"
       id="path96" /><path
       class="fil4"
       d="m -25324.597,5889.3611 c 582.44,-69.1 554.89,17.68 1054.3,122.61 l -63.26,-118.03 c -45.74,1.68 -265.21,-135.03 -381.74,-175.52 -157.26,-54.64 -293.79,-78.03 -455.18,-120.57 l -99.39,12.06 z"
       id="path98" /><path
       class="fil4"
       d="m -24713.754,4252.6126 c 298.26,-64.13 646.09,-104.3 956.14,-85.37 -113.01,-306.44 -154.19,-932.96 -1168.89,-725.2 -865.847,177.266 -611.159,952.7452 -542.652,1133.0034 z"
       id="path100" /><path
       class="fil2"
       d="m -25000.137,14165.351 c 61.1,48.55 36.46,94.61 279.53,141.36 273.64,52.64 925.66,81.9 1194.07,77.98 58.74,-65.35 57.82,-16.85 99.43,-85.84 l -5.17,-29.98 c 3.95,-6.3 -11.83,-19.23 -8.54,-24.39 1.78,-2.8 4.08,-6.95 6.74,-11.18 l 1.74,-27.16 c -89.55,-17.42 -27.36,-27.99 -134.78,-97.56 -141.72,-91.77 -511.03,-83.42 -553.75,-400.09 -252.16,68.83 -559.98,19.99 -814.42,-47.87 z"
       id="path102" /><path
       class="fil2"
       d="m -24013.447,14344.941 c 252.83,-177.86 379.24,-266.79 379.24,-266.79 536.58,296.97 239.19,364.36 -379.24,266.79 z"
       id="path104" /><path
       class="fil2"
       d="m -23134.507,5984.3011 c 198.88,-18.12 284.28,72.76 429.92,143.67 130.91,-234.21 342.21,-990.26 -87.36,-1092.69 -112.63,98.22 -147.3,290.49 -187.35,481.55 -191.5,12.8 -212.36,-92.07 -155.21,467.47 z"
       id="path106" /><path
       class="fil4"
       d="m -23038.127,7584.8411 c 3.77,-2.92 88.49,-115 91.97,-119.84 152.25,-211.19 353.2,-1205.74 249.03,-1429.99 -159.59,-27.69 -266.87,-91.29 -452.91,-18.66 -179.34,227.06 -133.45,642.97 -402.78,827.52 v 0 l -58.38,1.95 c -202.91,-47.46 -1119.23,-1245.34 -1627.99,-550.17 -467.93,639.36 1179.94,1532 1601.48,1538.54 425.19,26.09 532.37,-164.01 599.58,-249.35 z"
       id="path107" /></g></g></g>&#10;</svg>
