<?xml version="1.0" encoding="UTF-8" standalone="no"?>
<!-- Creator: CorelDRAW 2018 (64-Bit) -->

<svg
   xml:space="preserve"
   width="467.04468"
   height="467.04468"
   version="1.1"
   style="clip-rule:evenodd;fill-rule:evenodd;image-rendering:optimizeQuality;shape-rendering:geometricPrecision;text-rendering:geometricPrecision"
   viewBox="0 0 12357.224 12357.224"
   zoomAndPan="magnify"
   id="svg107"
   xmlns="http://www.w3.org/2000/svg"
   xmlns:svg="http://www.w3.org/2000/svg">&#10; <defs
   id="defs1"><style
     type="text/css"
     id="style1">&#10;   <![CDATA[
    .fil3 {fill:#898989}
    .fil5 {fill:#2B2A29}
    .fil0 {fill:#AE4A84}
    .fil4 {fill:#393185}
    .fil1 {fill:#F8BD79}
    .fil2 {fill:#FCD0A3}
   ]]>&#10;  </style></defs>&#10; <g
   id="Layer_x0020_1"
   transform="translate(58679.938,-5769.0107)">&#10;  <metadata
   id="CorelCorpID_0Corel-Layer" />&#10;  &#10;  &#10;  &#10;  &#10;  &#10;  &#10;  &#10;  &#10;  &#10;  &#10;  &#10;  &#10;  &#10;  &#10;  &#10;  &#10;  &#10;  &#10;  &#10;  &#10;  &#10;  &#10;  &#10;  &#10;  &#10;  &#10;  &#10;  &#10;  &#10;  &#10;  &#10;  &#10;  &#10;  &#10;  &#10;  &#10;  &#10;  &#10;  &#10;  &#10;  &#10;  &#10;  &#10;  &#10;  &#10;  &#10;  &#10;  &#10;  &#10; <g
   id="g13"><rect
     style="fill:none;stroke:#000000;stroke-width:0;stroke-linejoin:bevel"
     id="rect6"
     width="12357.224"
     height="12357.224"
     x="-18126.234"
     y="-58679.938"
     ry="0"
     transform="rotate(-90)" /><g
     id="g7"
     transform="translate(-20471.324,914.19089)"><path
       class="fil0"
       d="m -32038.967,9451.4211 c -47.96,-50.78 -23.95,-179.85 -242.52,-302.51 -243.87,-136.86 -399.41,-81.97 -453.83,-148.38 -2.25,3.97 -5.25,14.3 -6,12.2 l -22.09,46.22 c -69.48,146.03 -271.49,437.75 -374.01,545.15 -62.63,65.62 -113.54,117.85 -170.24,176.77 -128.83,133.87 -257.36,253.1299 -438.34,202.22 -306.41,-86.19 -91.82,-371.33 -92.1,-372.31 -51.47,15.92 -96.59,58.95 -118.63,94.41 -52.66,177.31 -54.36,318.8799 15.69,446.8999 360.21,211.46 710.08,150.57 1127.69,-33.39 l 673.27,-400.1099 c 108.64,-82.77 94.78,-123 101.11,-267.17 z"
       id="path1" /><path
       class="fil0"
       d="m -30569.717,9223.6311 c -20.84,-66.66 57.33,-172.14 -85.33,-378.21 -159.18,-229.93 -323.04,-248.79 -342.83,-332.34 -3.77,2.58 -10.99,10.55 -10.74,8.33 l -40.12,31.86 c -126.47,100.78 -435.93,274.4 -575.16,325.98 -85.06,31.51 -153.72,56.13 -230.52,84.22 -174.47,63.84 -342.28,114.67 -482.62,-10.43 -237.6,-211.81 80.29,-374 80.46,-375 -53.23,-8.26 -112.65,10.63 -148,32.83 -125.08,136.27 -188.68,262.77 -181.85,408.53 231.03,347.99 572.18,446.67 1028.16,464.43 l 780.54,-64.41 c 133.93,-26.75 139.11,-68.98 208.01,-195.79 z"
       id="path2" /><path
       class="fil2"
       d="m -34786.477,13802.561 c 64.07,44.55 42.42,92.09 287.98,123.24 276.44,35.08 929,22.69 1196.61,1.65 54.45,-68.96 4.38,-8.32 41.5,-79.82 l 22.42,-43.44 c 3.54,-6.54 9.73,-16.77 12.68,-22.13 1.6,-2.91 3.63,-7.19 6.02,-11.58 v -27.22 c -90.48,-11.67 -29.09,-26.19 -140.73,-88.76 -147.28,-82.55 -515.31,-50.66 -578.14,-363.96 -247.26,84.78 -557.57,55.67 -815.82,4.18 z"
       id="path28" /><path
       class="fil2"
       d="m -33556.367,11324.581 89.43,50.27 c 159.51,-124.26 299.23,-454.04 305.89,-706.25 -191.22,-57.96 -284.39,-118.13 -385.56,-223.49 -270.87,150.09 -30.62,694.17 -9.76,879.47 z"
       id="path29" /><path
       class="fil2"
       d="m -29835.397,8860.5111 c -136.49,63.03 -264.22,30.39 -475.12,49.51 35.31,346.96 -209.45,578.83 -375.09,786.31 183.06,-6.34 126.04,-24.43 289.55,-87.45 3.3,6.29 9.39,10.24 7.82,19.81 -1.56,9.47 6.22,15.7 7.43,19.74 1.74,5.73 9.83,32.31 11.91,40.24 24.32,92.42 22.76,158.03 120.62,244.13 221,194.4899 1048.51,300.0699 1224.08,220.1299 -290.57,-307.5399 -132.95,-579.5599 -334.27,-668.4499 -606.05,-267.6 83.47,-58.75 108.25,-510.63 -244.24,-185.49 -362.81,78.03 -585.18,-113.34 z"
       id="path30" /><path
       class="fil3"
       d="m -34764.987,13800.981 c -259.5,4.28 -830.52,-1.71 -1018.42,120.49 217.52,181.06 2643.64,168.39 3100.82,168.34 l 2384.37,-58.25 c 130.9,-6.84 260.65,-17.84 392.34,-30.96 58.11,-5.8 124.32,-10.94 180.8,-20.86 22.84,-4.01 52.35,-9.17 74.2,-16.39 101.65,-33.59 55.93,-22.33 83.79,-41.88 -234.13,-158.42 -1990.55,-165.53 -2387.18,-161.75 l -1236.45,-1.78 c -5.52,6.71 -10.07,17.07 -13.08,22.54 -2.95,5.36 -9.14,15.59 -12.68,22.13 l -22.42,43.44 c -37.12,71.5 12.95,10.86 -41.5,79.82 -267.61,21.04 -920.17,33.43 -1196.61,-1.65 -245.56,-31.15 -223.91,-78.69 -287.98,-123.24 z"
       id="path39" /><path
       class="fil4"
       d="m -29266.199,8616.5476 c 256.69,153.66 337.812,1357.8535 305.282,1579.0634 527.96,-3.12 774.9,-499.8299 654.21,-1041.3099 -131.29,-589.08 -415.192,-739.2935 -959.492,-537.7535 z"
       id="path57" /><path
       class="fil4"
       d="m -33428.027,10231.291 -124.03,190.46 c 82.48,125.7 165.39,204.15 347.92,298.87 200.5,-43.57 951.32,-531.09 1674.5,-697.13 233.28,-53.5599 417.67,-76.9999 593.49,-186.4399 0.13,-1.44 244.71,-172.35 295.96,-405.32 l 8.5,-108.83 c -7.12,-106.47 -61.52,-221.33 -197.49,-336.22 -296.49,-250.52 -622.76,-104.11 -960.44,72.53 -148.64,77.74 -281.58,146.15 -446.15,233.14 -269.38,142.39 -859.79,590.1 -1096.88,839.4499 l -75.21,78.83 c 0.17,-4.98 -13.05,14.18 -20.17,20.66 z"
       id="path58" /><path
       class="fil4"
       d="m -30845.897,9604.1711 c 75.26,7.31 60.33,10.61 128.21,-5.88 201.68,-172.65 485.66,-354.39 516.2,-701.8 l -226.57,-161.15 c -10.51,314.69 -153.8,582.61 -417.38,866.76 z"
       id="path59" /><path
       class="fil5"
       d="m -29825.047,8865.4811 c 216.1,198.42 343.09,-61.14 581.23,132.12 -39.33,450.85 -721.76,219.89 -124.65,506.88 198.36,95.33 32.05,362.13 312.58,678.8699 l 100.61,20.4 c 45.69,-218.8599 -60.21,-1420.0999 -307.26,-1588.8199 -114.93,45.67 -138.72,35.17 -276.03,91.12 -151.86,61.87 -165.76,67.44 -286.48,159.43 z"
       id="path74" /><path
       class="fil5"
       d="m -34531.867,13570.261 c 258.25,51.49 568.56,80.6 815.82,-4.18 194.54,-76.75 234.07,-130.27 251.83,-382.22 14.14,-200.64 17,-398.32 26.07,-599.09 17.12,-379.21 51.64,-860.97 36.21,-1230.39 -62.35,-175.74 -419.76,-651.14 -190,-858.76 l 36.06,-217.87 c -116.48,-141.98 -412.27,-22.33 -909.88,-313.4299 -445.97,-260.89 -418.62,-538.35 -520.1,-646.83 -182.99,242.81 -264.67,653.7 -157.24,996.2699 142.06,453.04 185.92,314.72 272.64,1010.55 67.06,538.03 85.97,1298.08 68.96,1858.57 -9.62,317.3 -39.86,348.65 269.63,387.38 z"
       id="path75" /><path
       class="fil0"
       d="m -33508.687,10154.571 c 243.32,-253.3099 859.65,-715.9899 1144.56,-867.0399 174.07,-92.28 314.82,-165.02 472.06,-247.56 357.28,-187.56 703.94,-345.22 1042.01,-116.21 572.37,387.73 -65.38,828.23 -65.47,830.44 116.98,2.47 239.47,-55.27 309.19,-113.22 230.13,-329.31 330.69,-619.91 274.1,-931.76 -597.35,-682.78 -1360.13,-797.19 -2346.89,-704.4 l -1661.87,362.94 c -56.56,19.36 -101.68,38.59 -138.59,59.32 v -0.01 l -0.39,0.22 c -3.15,1.77 -6.24,3.57 -9.27,5.36 -298.49,173.35 -464.04,438.28 -496.61,794.84 15.05,505.71 485.7,862.1099 1411.95,1069.1999 z"
       id="path84" /><path
       class="fil2"
       d="m -33776.917,13933.071 c 233.61,-202.44 350.42,-303.66 350.42,-303.66 563.77,241.39 274.69,338.4 -350.42,303.66 z"
       id="path105" /></g></g></g>&#10;</svg>
