<?xml version="1.0" encoding="UTF-8" standalone="no"?>
<!-- Creator: CorelDRAW 2018 (64-Bit) -->

<svg
   xml:space="preserve"
   width="467.04468"
   height="467.04468"
   version="1.1"
   style="clip-rule:evenodd;fill-rule:evenodd;image-rendering:optimizeQuality;shape-rendering:geometricPrecision;text-rendering:geometricPrecision"
   viewBox="0 0 12357.224 12357.224"
   zoomAndPan="magnify"
   id="svg107"
   xmlns="http://www.w3.org/2000/svg"
   xmlns:svg="http://www.w3.org/2000/svg">&#10; <defs
   id="defs1"><style
     type="text/css"
     id="style1">&#10;   <![CDATA[
    .fil3 {fill:#898989}
    .fil5 {fill:#2B2A29}
    .fil0 {fill:#AE4A84}
    .fil4 {fill:#393185}
    .fil1 {fill:#F8BD79}
    .fil2 {fill:#FCD0A3}
   ]]>&#10;  </style></defs>&#10; <g
   id="Layer_x0020_1"
   transform="translate(60213.699,-25362.39)">&#10;  <metadata
   id="CorelCorpID_0Corel-Layer" />&#10;  &#10;  &#10;  &#10;  &#10;  &#10;  &#10;  &#10;  &#10;  &#10;  &#10;  &#10;  &#10;  &#10;  &#10;  &#10;  &#10;  &#10;  &#10;  &#10;  &#10;  &#10;  &#10;  &#10;  &#10;  &#10;  &#10;  &#10;  &#10;  &#10;  &#10;  &#10;  &#10;  &#10;  &#10;  &#10;  &#10;  &#10;  &#10;  &#10;  &#10;  &#10;  &#10;  &#10;  &#10;  &#10;  &#10;  &#10;  &#10;  &#10; <g
   id="g14"><rect
     style="fill:none;stroke:#000000;stroke-width:0;stroke-linejoin:bevel"
     id="rect4"
     width="12357.224"
     height="12357.224"
     x="-37719.613"
     y="-60213.699"
     ry="0"
     transform="rotate(-90)" /><g
     id="g4"
     transform="translate(1443.3796,11062.875)"><path
       class="fil1"
       d="m -53520.377,20932.371 200,96.32 c 150.45,5.89 175.52,-99.75 425.62,-201.29 152.95,-62.1 117.38,-51.81 157.17,-111.34 -119.29,-48.06 -225.32,-220.43 -282.06,-337.65 -79.13,87.23 -136.68,234.01 -207.95,323.58 -113.75,142.95 -143.88,126.47 -292.78,230.38 z"
       id="path6" /><path
       class="fil2"
       d="m -53325.107,21016.861 c 58.96,150.8 -567.09,460.07 536.63,1055.05 l 190.25,116.07 -157.91,4.45 340.55,50.78 c -124.55,-280.07 66.7,-523.57 2.42,-723.1 -83.64,-113.69 -186.12,-70.06 -178.76,-249.43 239.18,-90.63 213.13,81.5 435,-119.83 14.4,-383.35 -371.8,-101.71 -442.88,-422.21 -99.22,16.03 -53.54,20.82 -142.51,-24.41 -39.79,59.53 -4.22,49.24 -157.17,111.34 -250.1,101.54 -275.17,207.18 -425.62,201.29 z"
       id="path14" /><path
       class="fil2"
       d="m -59061.577,22242.191 c 60.45,56.98 103.79,122.59 210.88,145.32 135.54,-65.69 37,-109.27 162.7,-166.22 82.36,-134.87 229.73,-205.69 411.22,-228.19 30.09,-162.34 20.26,-471.85 123.06,-579.95 -61.55,-113.61 -194.22,-224.07 -368.19,-227.41 -132.94,86.82 -208.95,366.83 -291.42,497.16 -142.67,225.46 -291.09,176.73 -248.25,559.29 z"
       id="path20" /><path
       class="fil2"
       d="m -54035.087,22181.761 c 84.02,226.52 101.23,222.83 389.21,230.88 184.68,5.15 405.18,13.63 554,-52.68 -11.98,-115.62 -17.21,-65.27 -117.65,-180.84 -151.66,-15.21 -320.91,-75.96 -423.71,-138.28 z"
       id="path25" /><path
       class="fil3"
       d="m -58260.427,22194.211 -428.73,33.82 c -125.7,56.95 -27.16,100.53 -162.7,166.22 -107.09,-22.73 -150.43,-88.34 -210.88,-145.32 -212.04,1.88 -530.03,1.68 -692.4,92.32 74.14,49.14 120.52,51.13 241.42,64.63 79.69,8.9 160.91,15.15 243.43,21.63 179.5,14.12 357.5,23.29 538.41,33 357.05,19.17 717.79,27.4 1075.66,38 1604.26,47.51 4375.7,49.07 6000.12,-72.51 82.64,-6.19 164.1,-13.29 246.5,-22.96 130.16,-15.27 150.63,-17.6 207.8,-61.79 -83.76,-52.79 -149.73,-49.59 -261.7,-59.86 -308.21,-23.26 -205.74,29.02 -437.2,70.08 -225.5,40 -340.98,-17.49 -411.55,-72.33 -52.64,14.7 -50.57,15.05 -104.5,-29.19 l -340.55,-50.78 -453.39,-13.31 c 100.44,115.57 105.67,65.22 117.65,180.84 -148.82,66.31 -369.32,57.83 -554,52.68 -287.98,-8.05 -305.19,-4.36 -389.21,-230.88 l -158.68,-15.03 c -275.25,-5.52 -1463.25,41.48 -1607.51,-34.08 -409.72,133.64 -705.49,155.87 -1196.23,153.82 -444.79,-1.85 -858.56,-81.53 -1261.76,-99 z"
       id="path31" /><path
       class="fil4"
       d="m -55026.087,20521.421 c 17.2,282.47 -417.14,508.21 447.8,1349.05 106.84,103.87 290.36,197.42 385.58,306.6 l 158.68,15.03 401.85,-140.92 c -37.75,-128.42 -294.85,-448.18 -382.58,-565.81 -40.35,-54.1 -407.43,-479.28 -212.96,-595.19 33.16,-301.82 352.87,-286.33 529.85,-478.29 239.7,-259.99 -57.78,-586 -193.15,-636.32 -561.54,-208.76 -943.4,692.1 -1135.07,745.85 z"
       id="path45" /><path
       class="fil4"
       d="m -52310.027,22282.741 c 70.57,54.84 186.05,112.33 411.55,72.33 231.46,-41.06 128.99,-93.34 437.2,-70.08 l -193.41,-59.55 c 223.9,-25.28 642.68,-953.75 164.51,-1322.47 -169.88,-130.99 -272.98,-99.58 -472.93,-162.04 -7.1,641.65 -141.6,1005.95 -346.92,1541.81 z"
       id="path51" /><path
       class="fil4"
       d="m -53994.167,20899.371 c 92.77,63.2 337.14,29.39 470.12,31.51 148.9,-103.91 179.03,-87.43 292.78,-230.38 71.27,-89.57 128.82,-236.35 207.95,-323.58 35.85,-201.11 24.44,-248.72 -90.4,-394.23 -26.39,264.61 -152.91,472.96 -294.61,631.49 -219.55,245.6 -196.3,269.88 -585.84,285.19 z"
       id="path52" /><path
       class="fil5"
       d="m -58154.877,21419.891 c -102.8,108.1 -92.97,417.61 -123.06,579.95 -6.08,43.12 -16.12,86.84 -12,130.3 7.09,74.67 -17.15,31.04 29.51,64.07 403.2,17.47 816.97,97.15 1261.76,99 490.74,2.05 786.51,-20.18 1196.23,-153.82 239.73,-77.04 352.28,-232.81 377.1,-518.62 27.02,-311.29 -104.95,-511.13 -104.74,-771.16 -56.86,-95.05 -40.72,-159.04 -28.27,-286.8 -508.57,138.6 -989.16,-152.23 -1286.86,-377.45 -611.52,-462.65 -484.32,-938.11 -566.99,-1113.96 -159.81,167.05 -249.75,637.72 -159.73,912.37 87.01,265.44 299.52,507.15 446.8,690.19 617.71,767.65 -140.93,565.4 -1029.75,745.93 z"
       id="path63" /><path
       class="fil5"
       d="m -52416.747,22249.951 c 53.93,44.24 51.86,43.89 104.5,29.19 205.32,-535.86 339.82,-900.16 346.92,-1541.81 -226.33,2.49 -374.22,-32.5 -635.64,-1.95 71.08,320.5 457.28,38.86 442.88,422.21 -221.87,201.33 -195.82,29.2 -435,119.83 -7.36,179.37 95.12,135.74 178.76,249.43 64.28,199.53 -126.97,443.03 -2.42,723.1 z"
       id="path71" /><path
       class="fil0"
       d="m -57409.977,19075.001 c 82.67,175.85 -44.53,651.31 566.99,1113.96 297.7,225.22 778.29,516.05 1286.86,377.45 -12.45,127.76 -28.59,191.75 28.27,286.8 l -5.58,-306.01 c 238.19,-118.55 243.03,-103.4 507.35,-25.78 191.67,-53.75 573.53,-954.61 1135.07,-745.85 135.37,50.32 432.85,376.33 193.15,636.32 -176.98,191.96 -496.69,176.47 -529.85,478.29 l 233.55,9.19 c 389.54,-15.31 366.29,-39.59 585.84,-285.19 141.7,-158.53 268.22,-366.88 294.61,-631.49 -51.93,-300.09 -486.91,-678.91 -750.94,-860.56 -318.65,-219.24 -695.18,-380.27 -1113.96,-497.65 -470.99,-131.99 -1631.57,-332.97 -2092.7,-63.48 -212.43,124.14 -254.05,276.95 -338.66,514 z"
       id="path76" /></g></g></g>&#10;</svg>
