<?xml version="1.0" encoding="UTF-8" standalone="no"?>
<!-- Creator: CorelDRAW 2018 (64-Bit) -->

<svg
   xml:space="preserve"
   width="467.04468"
   height="467.04468"
   version="1.1"
   style="clip-rule:evenodd;fill-rule:evenodd;image-rendering:optimizeQuality;shape-rendering:geometricPrecision;text-rendering:geometricPrecision"
   viewBox="0 0 12357.224 12357.224"
   zoomAndPan="magnify"
   id="svg107"
   xmlns="http://www.w3.org/2000/svg"
   xmlns:svg="http://www.w3.org/2000/svg">&#10; <defs
   id="defs1"><style
     type="text/css"
     id="style1">&#10;   <![CDATA[
    .fil3 {fill:#898989}
    .fil5 {fill:#2B2A29}
    .fil0 {fill:#AE4A84}
    .fil4 {fill:#393185}
    .fil1 {fill:#F8BD79}
    .fil2 {fill:#FCD0A3}
   ]]>&#10;  </style></defs>&#10; <g
   id="Layer_x0020_1"
   transform="translate(75412.531,-3907.7686)">&#10;  <metadata
   id="CorelCorpID_0Corel-Layer" />&#10;  &#10;  &#10;  &#10;  &#10;  &#10;  &#10;  &#10;  &#10;  &#10;  &#10;  &#10;  &#10;  &#10;  &#10;  &#10;  &#10;  &#10;  &#10;  &#10;  &#10;  &#10;  &#10;  &#10;  &#10;  &#10;  &#10;  &#10;  &#10;  &#10;  &#10;  &#10;  &#10;  &#10;  &#10;  &#10;  &#10;  &#10;  &#10;  &#10;  &#10;  &#10;  &#10;  &#10;  &#10;  &#10;  &#10;  &#10;  &#10;  &#10; <g
   id="g12"><rect
     style="fill:none;stroke:#000000;stroke-width:0;stroke-linejoin:bevel"
     id="rect1"
     width="12357.224"
     height="12357.224"
     x="-16264.992"
     y="-75412.531"
     ry="0"
     transform="rotate(-90)" /><g
     id="g2"
     transform="translate(-12350.292,1589.6279)"><path
       class="fil1"
       d="m -57834.567,5038.3411 -17.63,140.46 c 138.82,49.97 301.1,69.84 448.62,121.22 74.15,25.83 143.53,54.3 211.41,90.08 62.8,33.11 127.44,90.46 178.75,75.97 l -84.22,-257.97 c -120.01,-76.84 -254.3,-118.67 -376.2,-194.18 -219.91,-136.2 -211.25,-180.3 -344.69,-286.34 5.29,96.76 32.45,227.85 -16.04,310.76 z"
       id="path5" /><path
       class="fil2"
       d="m -57896.587,4569.8911 c 72.43,179.82 65.76,253.55 57.29,456.62 48.49,-82.91 21.33,-214 16.04,-310.76 133.44,106.04 124.78,150.14 344.69,286.34 121.9,75.51 256.19,117.34 376.2,194.18 l 9.33,-39.34 c 348.95,20.47 453.21,-198.62 533.02,-500.15 63.22,-238.85 112.21,-693.28 91.33,-953.65 -281.83,229.49 -382.13,176.66 -738.99,305.09 -46.48,172.22 1.34,220.32 -148.51,312.52 -127.88,-67.18 -88.56,-139.37 -163.26,-264.97 -62.23,-104.65 -144.18,-130.33 -283.15,-67.03 -131.96,276.42 122.15,435.64 -93.99,581.15 z"
       id="path9" /><path
       class="fil2"
       d="m -57636.107,13816.381 c 69.1,211.26 469.66,168.52 668.35,172.02 202.67,3.57 645.72,14.36 823.52,-34.02 l 18.74,-136.9 c -139.29,-276.26 -515.61,-82.83 -688.17,-458.48 -310.02,29.93 -497.32,3.54 -788.27,-42 -46.91,144.06 -38.62,332.04 -34.17,499.38 z"
       id="path16" /><path
       class="fil2"
       d="m -56151.321,5023.9766 c 53.74,-19.6678 117.328,-96.0018 194.141,-141.873 112.529,-67.1779 197.627,-70.6481 352.665,-45.1427 l -9.908,-233.1095 c -83.976,-737.6015 -562.396,-710.7708 -678.021,-543.1194 -99.975,144.9789 -14.266,244.8858 21.43,375.033 -39.303,117.5816 -120.163,152.7792 -48.45,308.7453 52.177,113.4943 123.74,184.1323 168.143,279.4663 z"
       id="path21"
       style="stroke-width:1.00678" /><path
       class="fil3"
       d="m -56126.657,13824.221 -18.74,136.9 c -177.8,48.38 -620.85,37.59 -823.52,34.02 -198.69,-3.5 -599.25,39.24 -668.35,-172.02 -176.82,5.77 -351.17,15.93 -526.76,33.41 l -492.45,115.47 175.29,77.52 c 68.51,13.55 148.52,23.28 218.3,31.14 712.82,80.28 2058.88,81.05 2770.3,-1.68 65.55,-7.61 148.99,-18.26 213.01,-30.63 27.02,-5.23 69.59,-14.09 94.04,-24.98 128.51,-57.24 23.56,0.25 74.76,-51.37 -207.84,-160.27 -716.9,-141.37 -1015.88,-147.78 z"
       id="path36" /><path
       class="fil4"
       d="m -56150.627,5022.0311 c -164.47,532.85 450.7,1148.76 -283.11,948.11 -153.71,-42.02 -166.07,-31.38 -274.35,-119.77 -4.29,-3.49 -11.9,-11.23 -18.28,-16.33 -21.86,43.91 25.19,62.01 -174.08,13.65 -216.95,-52.64 -508.62,-111.61 -721.54,-33.88 -331.69,121.08 -702.53,883.37 346.94,1149.88 286.96,72.86 655.46,114.9 971.35,102.22 -1.83,145.03 -26.75,283.09 29.66,396.87 l -1.04,-388.62 c 345.48,4.49 524.52,15.6 717.01,-208.98 417.56,-487.19 179.25,-1675.11 45.75,-1903.53 l -92.52,-124.47 c -154.75,-25.21 -239.69,-21.78 -352.01,44.62 -76.67,45.34 -140.14,120.79 -193.78,140.23 z"
       id="path41" /><path
       class="fil4"
       d="m -58165.157,4022.0111 c 1.55,-111.04 14.85,-99.27 129.37,-143.77 l 599.22,-177.08 c 313.95,-71.34 648.79,-97.66 978,-97.36 -64.1,-334.85 -124.46,-486.98 -330.94,-625.97 -348.73,-234.74 -1741.83,-246.78 -1413.96,932.16 26.77,96.26 -27.84,-82.13 16.78,54.76 3.21,9.84 7.68,20.35 10.47,28.46 2.83,8.24 6.08,19.81 11.06,28.8 z"
       id="path47" /><path
       class="fil4"
       d="m -58028.377,5490.8411 c 427.75,-111.56 686.29,-15.43 1073.12,120.65 l -61.83,-146.91 c -51.31,14.49 -115.95,-42.86 -178.75,-75.97 -67.88,-35.78 -137.26,-64.25 -211.41,-90.08 -147.52,-51.38 -309.8,-71.25 -448.62,-121.22 -130.58,-11.31 -74.41,-18.81 -118.78,108.46 -17.32,49.67 -36.7,143.09 -53.73,205.07 z"
       id="path53" /><path
       class="fil5"
       d="m -57987.177,9493.9411 c -2.53,337.48 -55.7,559.3599 -6.46,927.1199 125.94,940.66 172.99,787.9 145.59,1877.26 -6.06,241.15 -59.49,751.14 -22.52,937.26 89.23,57.16 133.41,58.38 267.47,88.16 290.95,45.54 478.25,71.93 788.27,42 398.7,-117.78 347.26,-253.78 374.17,-685.97 21.17,-340.07 39.21,-680.62 53.57,-1023.34 24.1,-574.87 120.36,-1550.07 71.7,-2079.6799 -57.74,-24.38 9.13,-18.72 -93.85,-2.94 -339.47,52.06 -346.04,74.85 -779.88,45.94 -180.67,-12.03 -737.18,-143.13 -798.06,-125.81 z"
       id="path60" /><path
       class="fil5"
       d="m -58167.377,4018.4111 c 67.85,167.05 158.26,458.71 269.63,558.22 216.14,-145.51 -37.97,-304.73 93.99,-581.15 138.97,-63.3 220.92,-37.62 283.15,67.03 74.7,125.6 35.38,197.79 163.26,264.97 149.85,-92.2 102.03,-140.3 148.51,-312.52 356.86,-128.43 457.16,-75.6 738.99,-305.09 l 9.06,-109.67 c -329.21,-0.3 -664.05,26.02 -978,97.36 l -599.22,177.08 c -114.52,44.5 -127.82,32.73 -129.37,143.77 z"
       id="path67" /><path
       class="fil0"
       d="m -58028.377,5490.8411 c -616.05,1411.2 230.92,1588.19 14.35,3043.6 -25.92,174.17 -61.93,335.88 -89.74,505.45 -61.73,376.31 1.86,257.66 118.81,457.65 60.88,-17.32 617.39,113.78 798.06,125.81 433.84,28.91 440.41,6.12 779.88,-45.94 102.98,-15.78 36.11,-21.44 93.85,2.94 146.28,-156 206.46,-115.84 224.62,-415.38 11.48,-189.57 -10.46,-413.37 -35.24,-601.18 -39.21,-297.23 -162.34,-837.92 -150.25,-1101.01 -56.41,-113.78 -31.49,-251.84 -29.66,-396.87 -315.89,12.68 -684.39,-29.36 -971.35,-102.22 -1049.47,-266.51 -678.63,-1028.8 -346.94,-1149.88 212.92,-77.73 504.59,-18.76 721.54,33.88 199.27,48.36 152.22,30.26 174.08,-13.65 -74.38,-74.79 -166.74,-154.97 -228.89,-222.55 -386.83,-136.08 -645.37,-232.21 -1073.12,-120.65 z"
       id="path77" /></g></g></g>&#10;</svg>
