<svg xmlns="http://www.w3.org/2000/svg" width="580.857" height="580.857" viewBox="0 0 153.685 153.685" xmlns:v="https://vecta.io/nano"><style><![CDATA[.G{image-rendering:optimizeQuality}.H{shape-rendering:geometricPrecision}.I{fill:#fcd0a3}.J{fill:#ae4a84}.K{text-rendering:geometricPrecision}]]></style><g fill-rule="evenodd" class="K G H"><g opacity=".5"><path d="M48.259 42.52l-.176 1.405c1.388.5 3.011.698 4.486 1.212.741.258 1.435.543 2.114.901.628.331 1.274.905 1.788.76l-.842-2.58c-1.2-.768-2.543-1.187-3.762-1.942-2.199-1.362-2.113-1.803-3.447-2.863.053.968.324 2.279-.16 3.108z" fill="#f8bd79"/><g class="I"><path d="M47.639 37.836c.724 1.798.658 2.535.573 4.566.485-.829.213-2.14.16-3.108 1.334 1.06 1.248 1.501 3.447 2.863 1.219.755 2.562 1.173 3.762 1.942l.093-.393c3.489.205 4.532-1.986 5.33-5.001.632-2.389 1.122-6.933.913-9.536-2.818 2.295-3.821 1.767-7.39 3.051-.465 1.722.013 2.203-1.485 3.125-1.279-.672-.886-1.394-1.633-2.65-.622-1.047-1.442-1.303-2.832-.67-1.32 2.764 1.221 4.356-.94 5.812zm2.605 92.465c.691 2.113 4.697 1.685 6.683 1.72 2.027.036 6.457.144 8.235-.34l.187-1.369c-1.393-2.763-5.156-.828-6.882-4.585-3.1.299-4.973.035-7.883-.42-.469 1.441-.386 3.32-.342 4.994zm14.848-87.925c.537-.197 1.173-.96 1.941-1.419 1.125-.672 1.976-.706 3.527-.451l-.099-2.331c-.84-7.376-5.624-7.108-6.78-5.431-1 1.45-.143 2.449.214 3.75-.393 1.176-1.202 1.528-.485 3.087.522 1.135 1.237 1.841 1.681 2.795z"/></g><g fill="#393185"><path d="M65.099 42.357c-1.645 5.329 4.507 11.488-2.831 9.481-1.537-.42-1.661-.314-2.743-1.198l-.183-.163c-.219.439.252.62-1.741.136-2.169-.526-5.086-1.116-7.215-.339-3.317 1.211-7.025 8.834 3.469 11.499 2.87.729 6.555 1.149 9.713 1.022-.018 1.45-.268 2.831.297 3.969l-.01-3.886c3.455.045 5.245.156 7.17-2.09 4.176-4.872 1.793-16.751.457-19.035l-.925-1.245c-1.548-.252-2.397-.218-3.52.446-.767.453-1.401 1.208-1.938 1.402zm-20.146-10c.015-1.11.149-.993 1.294-1.438l5.992-1.771c3.139-.713 6.488-.977 9.78-.974-.641-3.349-1.245-4.87-3.309-6.26-3.487-2.347-17.418-2.468-14.14 9.322.268.963-.278-.821.168.548.032.098.077.204.105.285s.061.198.111.288zm1.368 14.688c4.278-1.116 6.863-.154 10.731 1.206l-.618-1.469c-.513.145-1.159-.429-1.788-.76-.679-.358-1.373-.642-2.114-.901-1.475-.514-3.098-.713-4.486-1.212-1.306-.113-.744-.188-1.188 1.085-.173.497-.367 1.431-.537 2.051z"/></g><g fill="#2b2a29"><path d="M46.733 87.076c-.025 3.375.32 5.737.812 9.415 1.259 9.407 1.887 8.021 1.613 18.915-.061 2.411 1.422 7.273-.015 8.971 1.967.727.089.699 1.43.996 2.909.455 4.783.719 7.883.42 3.987-1.178 3.473-2.538 3.742-6.86l.536-10.233c.241-5.749 1.204-15.501.717-20.797-.577-.244.091-.187-.938-.029-3.395.521-3.46.749-7.799.459-1.807-.12-7.372-1.431-7.981-1.258zm-1.802-54.755c.678 1.67 1.583 4.587 2.696 5.582 2.161-1.455-.38-3.047.94-5.811 1.39-.633 2.209-.376 2.832.67.747 1.256.354 1.978 1.633 2.65 1.499-.922 1.02-1.403 1.485-3.125 3.569-1.284 4.572-.756 7.39-3.051l.091-1.097c-3.292-.003-6.641.26-9.78.974l-5.992 1.771c-1.145.445-1.278.327-1.294 1.438z"/></g><path d="M46.321 47.045c-6.161 14.112 2.309 15.882.144 30.436-.259 1.742-.619 3.359-.897 5.055-.617 3.763.019 2.577 1.188 4.576.609-.173 6.174 1.138 7.981 1.258 4.338.289 4.404.061 7.799-.459 1.03-.158.361-.214.938.029 1.463-1.56 2.065-1.158 2.246-4.154.115-1.896-.105-4.134-.352-6.012-.392-2.972-1.623-8.379-1.503-11.01-.564-1.138-.315-2.518-.297-3.969-3.159.127-6.844-.294-9.713-1.022-10.495-2.665-6.786-10.288-3.469-11.499 2.129-.777 5.046-.188 7.215.339 1.993.484 1.522.303 1.741-.136-.744-.748-1.667-1.55-2.289-2.225-3.868-1.361-6.454-2.322-10.731-1.206z" class="J"/></g><g class="J"><path d="M76.753 86.636c-.48-.508-.24-1.799-2.425-3.025-2.439-1.369-3.994-.82-4.538-1.484-.022.04-.053.143-.06.122l-.221.462c-.695 1.46-2.715 4.377-3.74 5.451l-1.702 1.768c-1.288 1.339-2.574 2.531-4.383 2.022-3.064-.862-.918-3.713-.921-3.723-.515.159-.966.59-1.186.944-.527 1.773-.544 3.189.157 4.469 3.602 2.115 7.101 1.506 11.277-.334l6.733-4.001c1.086-.828.948-1.23 1.011-2.672z"/><path d="M91.445 84.358c-.208-.667.573-1.721-.853-3.782-1.592-2.299-3.23-2.488-3.428-3.323-.038.026-.11.105-.107.083l-.401.319c-1.265 1.008-4.359 2.744-5.752 3.26l-2.305.842c-1.745.638-3.423 1.147-4.826-.104-2.376-2.118.803-3.74.805-3.75-.532-.083-1.127.106-1.48.328-1.251 1.363-1.887 2.628-1.818 4.085 2.31 3.48 5.722 4.467 10.282 4.644l7.805-.644c1.339-.268 1.391-.69 2.08-1.958z"/></g><path d="M49.278 130.147c.641.445.424.921 2.88 1.232 2.764.351 9.29.227 11.966.017.544-.69.044-.083.415-.798l.224-.434c.035-.065.097-.168.127-.221.016-.029.036-.072.06-.116v-.272c-.905-.117-.291-.262-1.407-.888-1.473-.826-5.153-.507-5.781-3.64-2.473.848-5.576.557-8.158.042zm12.301-24.78l.894.503c1.595-1.243 2.992-4.54 3.059-7.062-1.912-.58-2.844-1.181-3.856-2.235-2.709 1.501-.306 6.942-.098 8.795zm37.209-24.64c-1.365.63-2.642.304-4.751.495.353 3.47-2.095 5.788-3.751 7.863 1.831-.063 1.26-.244 2.895-.875.033.063.094.102.078.198s.062.157.074.197l.119.402c.243.924.228 1.58 1.206 2.441 2.21 1.945 10.485 3.001 12.241 2.201-2.906-3.075-1.33-5.796-3.343-6.684-6.06-2.676.835-.588 1.082-5.106-2.442-1.855-3.628.78-5.852-1.133z" class="I"/><path d="M49.492 130.131c-2.595.043-8.305-.017-10.184 1.205 2.175 1.811 26.436 1.684 31.008 1.683l23.844-.583c1.309-.068 2.606-.178 3.923-.31.581-.058 1.243-.109 1.808-.209.228-.04.524-.092.742-.164 1.017-.336.559-.223.838-.419-2.341-1.584-19.906-1.655-23.872-1.618l-12.364-.018c-.055.067-.101.171-.131.225s-.091.156-.127.221l-.224.434c-.371.715.129.109-.415.798-2.676.21-9.202.334-11.966-.016-2.456-.311-2.239-.787-2.88-1.232z" fill="#898989"/><g fill="#393185"><path d="M104.48 78.287c2.567 1.537 3.378 13.579 3.053 15.791 5.28-.031 7.749-4.998 6.542-10.413-1.313-5.891-4.152-7.393-9.595-5.378zM62.862 94.435l-1.24 1.905c.825 1.257 1.654 2.041 3.479 2.989 2.005-.436 9.513-5.311 16.745-6.971 2.333-.536 4.177-.77 5.935-1.864.001-.014 2.447-1.724 2.96-4.053l.085-1.088c-.071-1.065-.615-2.213-1.975-3.362-2.965-2.505-6.228-1.041-9.604.725l-4.462 2.331c-2.694 1.424-8.598 5.901-10.969 8.394l-.752.788c.002-.05-.13.142-.202.207z"/><path d="M88.683 88.163c.753.073.603.106 1.282-.059 2.017-1.726 4.857-3.544 5.162-7.018l-2.266-1.612c-.105 3.147-1.538 5.826-4.174 8.668z"/></g><path d="M98.892 80.776c2.161 1.984 3.431-.611 5.812 1.321-.393 4.508-7.218 2.199-1.247 5.069 1.984.953.321 3.621 3.126 6.789l1.006.204c.457-2.189-.602-14.201-3.073-15.888-1.149.457-1.387.352-2.76.911-1.519.619-1.658.674-2.865 1.594zm-47.068 47.048c2.582.515 5.686.806 8.158-.042 1.945-.767 2.341-1.303 2.518-3.822l.261-5.991c.171-3.792.516-8.61.362-12.304-.623-1.757-4.198-6.511-1.9-8.588l.361-2.179c-1.165-1.42-4.123-.223-9.099-3.134-4.46-2.609-4.186-5.383-5.201-6.468-1.83 2.428-2.647 6.537-1.572 9.963 1.421 4.53 1.859 3.147 2.726 10.105.671 5.38.86 12.981.69 18.586-.096 3.173-.399 3.486 2.696 3.874z" fill="#2b2a29"/><path d="M62.055 93.667c2.433-2.533 8.596-7.16 11.446-8.67l4.721-2.476c3.573-1.876 7.039-3.452 10.42-1.162 5.724 3.877-.654 8.282-.655 8.304 1.17.025 2.395-.553 3.092-1.132 2.301-3.293 3.307-6.199 2.741-9.318-5.973-6.828-13.601-7.972-23.469-7.044l-16.619 3.629c-.566.194-1.017.386-1.386.593h0l-.004.002-.093.054c-2.985 1.733-4.64 4.383-4.966 7.948.151 5.057 4.857 8.621 14.119 10.692z" class="J"/><path d="M59.373 131.452l3.504-3.037c5.638 2.414 2.747 3.384-3.504 3.037z" class="I"/></g><path d="M75.348 39.397c18.635.098 33.689 15.231 33.689 33.866" fill="none" stroke="#000" stroke-width="2.117" stroke-linecap="round" stroke-linejoin="bevel" stroke-dasharray="2.11667, 4.23333" class="G H K"/></svg>